<mxfile host="app.diagrams.net" modified="2024-02-19T02:28:36.478Z" agent="Mozilla/5.0 (X11; Linux x86_64; rv:120.0) Gecko/20100101 Firefox/120.0" etag="EwIRESCDlVLqEcBC6sUk" version="23.1.2" type="device">
  <diagram name="Page-1" id="hKz8WEQ4T6h3WkIYSnqJ">
    <mxGraphModel dx="782" dy="498" grid="1" gridSize="10" guides="1" tooltips="1" connect="1" arrows="1" fold="1" page="1" pageScale="1" pageWidth="850" pageHeight="1100" math="0" shadow="0">
      <root>
        <mxCell id="0" />
        <mxCell id="1" parent="0" />
        <mxCell id="xU4EvECStgTXnPyY3UQx-7" style="edgeStyle=orthogonalEdgeStyle;rounded=0;orthogonalLoop=1;jettySize=auto;html=1;exitX=1;exitY=0.5;exitDx=0;exitDy=0;entryX=0;entryY=0.5;entryDx=0;entryDy=0;" edge="1" parent="1" source="xU4EvECStgTXnPyY3UQx-1" target="xU4EvECStgTXnPyY3UQx-5">
          <mxGeometry relative="1" as="geometry">
            <Array as="points">
              <mxPoint x="240" y="220" />
              <mxPoint x="240" y="100" />
            </Array>
          </mxGeometry>
        </mxCell>
        <mxCell id="xU4EvECStgTXnPyY3UQx-21" value="Upload File Clicked" style="edgeLabel;html=1;align=center;verticalAlign=middle;resizable=0;points=[];" vertex="1" connectable="0" parent="xU4EvECStgTXnPyY3UQx-7">
          <mxGeometry x="0.5793" y="2" relative="1" as="geometry">
            <mxPoint as="offset" />
          </mxGeometry>
        </mxCell>
        <mxCell id="xU4EvECStgTXnPyY3UQx-8" style="edgeStyle=orthogonalEdgeStyle;rounded=0;orthogonalLoop=1;jettySize=auto;html=1;exitX=1;exitY=0.5;exitDx=0;exitDy=0;entryX=0;entryY=0.5;entryDx=0;entryDy=0;" edge="1" parent="1" source="xU4EvECStgTXnPyY3UQx-1" target="xU4EvECStgTXnPyY3UQx-3">
          <mxGeometry relative="1" as="geometry" />
        </mxCell>
        <mxCell id="xU4EvECStgTXnPyY3UQx-20" value="Insert Record Clicked" style="edgeLabel;html=1;align=center;verticalAlign=middle;resizable=0;points=[];" vertex="1" connectable="0" parent="xU4EvECStgTXnPyY3UQx-8">
          <mxGeometry x="0.4824" y="-1" relative="1" as="geometry">
            <mxPoint x="-29" y="-1" as="offset" />
          </mxGeometry>
        </mxCell>
        <mxCell id="xU4EvECStgTXnPyY3UQx-10" style="edgeStyle=orthogonalEdgeStyle;rounded=0;orthogonalLoop=1;jettySize=auto;html=1;exitX=1;exitY=0.5;exitDx=0;exitDy=0;entryX=0;entryY=0.5;entryDx=0;entryDy=0;" edge="1" parent="1" source="xU4EvECStgTXnPyY3UQx-1" target="xU4EvECStgTXnPyY3UQx-2">
          <mxGeometry relative="1" as="geometry">
            <Array as="points">
              <mxPoint x="240" y="220" />
              <mxPoint x="240" y="340" />
            </Array>
          </mxGeometry>
        </mxCell>
        <mxCell id="xU4EvECStgTXnPyY3UQx-22" value="Search Records Clicked" style="edgeLabel;html=1;align=center;verticalAlign=middle;resizable=0;points=[];" vertex="1" connectable="0" parent="xU4EvECStgTXnPyY3UQx-10">
          <mxGeometry x="0.5379" y="-1" relative="1" as="geometry">
            <mxPoint as="offset" />
          </mxGeometry>
        </mxCell>
        <mxCell id="xU4EvECStgTXnPyY3UQx-1" value="Homepage" style="rounded=0;whiteSpace=wrap;html=1;" vertex="1" parent="1">
          <mxGeometry x="80" y="190" width="120" height="60" as="geometry" />
        </mxCell>
        <mxCell id="xU4EvECStgTXnPyY3UQx-16" style="edgeStyle=orthogonalEdgeStyle;rounded=0;orthogonalLoop=1;jettySize=auto;html=1;exitX=1;exitY=0.5;exitDx=0;exitDy=0;entryX=0;entryY=0.5;entryDx=0;entryDy=0;" edge="1" parent="1" source="xU4EvECStgTXnPyY3UQx-2" target="xU4EvECStgTXnPyY3UQx-15">
          <mxGeometry relative="1" as="geometry" />
        </mxCell>
        <mxCell id="xU4EvECStgTXnPyY3UQx-25" value="Search Button Clicked" style="edgeLabel;html=1;align=center;verticalAlign=middle;resizable=0;points=[];" vertex="1" connectable="0" parent="xU4EvECStgTXnPyY3UQx-16">
          <mxGeometry x="-0.1" relative="1" as="geometry">
            <mxPoint as="offset" />
          </mxGeometry>
        </mxCell>
        <mxCell id="xU4EvECStgTXnPyY3UQx-2" value="Record Search Page" style="rounded=0;whiteSpace=wrap;html=1;" vertex="1" parent="1">
          <mxGeometry x="370" y="310" width="120" height="60" as="geometry" />
        </mxCell>
        <mxCell id="xU4EvECStgTXnPyY3UQx-11" style="edgeStyle=orthogonalEdgeStyle;rounded=0;orthogonalLoop=1;jettySize=auto;html=1;exitX=1;exitY=0.5;exitDx=0;exitDy=0;entryX=0;entryY=0.5;entryDx=0;entryDy=0;" edge="1" parent="1" source="xU4EvECStgTXnPyY3UQx-3" target="xU4EvECStgTXnPyY3UQx-4">
          <mxGeometry relative="1" as="geometry" />
        </mxCell>
        <mxCell id="xU4EvECStgTXnPyY3UQx-24" value="Spreadsheet File Selected" style="edgeLabel;html=1;align=center;verticalAlign=middle;resizable=0;points=[];" vertex="1" connectable="0" parent="xU4EvECStgTXnPyY3UQx-11">
          <mxGeometry x="-0.2" y="-1" relative="1" as="geometry">
            <mxPoint x="8" y="-1" as="offset" />
          </mxGeometry>
        </mxCell>
        <mxCell id="xU4EvECStgTXnPyY3UQx-3" value="File Selection" style="rounded=0;whiteSpace=wrap;html=1;" vertex="1" parent="1">
          <mxGeometry x="370" y="190" width="120" height="60" as="geometry" />
        </mxCell>
        <mxCell id="xU4EvECStgTXnPyY3UQx-19" style="edgeStyle=orthogonalEdgeStyle;rounded=0;orthogonalLoop=1;jettySize=auto;html=1;exitX=0.5;exitY=0;exitDx=0;exitDy=0;entryX=0.5;entryY=1;entryDx=0;entryDy=0;" edge="1" parent="1" source="xU4EvECStgTXnPyY3UQx-4" target="xU4EvECStgTXnPyY3UQx-6">
          <mxGeometry relative="1" as="geometry" />
        </mxCell>
        <mxCell id="xU4EvECStgTXnPyY3UQx-4" value="Record Merge Conflicts Page" style="rounded=0;whiteSpace=wrap;html=1;" vertex="1" parent="1">
          <mxGeometry x="630" y="190" width="120" height="60" as="geometry" />
        </mxCell>
        <mxCell id="xU4EvECStgTXnPyY3UQx-12" style="edgeStyle=orthogonalEdgeStyle;rounded=0;orthogonalLoop=1;jettySize=auto;html=1;exitX=1;exitY=0.5;exitDx=0;exitDy=0;entryX=0;entryY=0.5;entryDx=0;entryDy=0;" edge="1" parent="1" source="xU4EvECStgTXnPyY3UQx-5" target="xU4EvECStgTXnPyY3UQx-6">
          <mxGeometry relative="1" as="geometry" />
        </mxCell>
        <mxCell id="xU4EvECStgTXnPyY3UQx-23" value="Form Data Submitted" style="edgeLabel;html=1;align=center;verticalAlign=middle;resizable=0;points=[];" vertex="1" connectable="0" parent="xU4EvECStgTXnPyY3UQx-12">
          <mxGeometry x="-0.2308" y="1" relative="1" as="geometry">
            <mxPoint x="10" y="1" as="offset" />
          </mxGeometry>
        </mxCell>
        <mxCell id="xU4EvECStgTXnPyY3UQx-5" value="Contact Creating Form" style="rounded=0;whiteSpace=wrap;html=1;" vertex="1" parent="1">
          <mxGeometry x="370" y="70" width="120" height="60" as="geometry" />
        </mxCell>
        <mxCell id="xU4EvECStgTXnPyY3UQx-14" style="edgeStyle=orthogonalEdgeStyle;rounded=0;orthogonalLoop=1;jettySize=auto;html=1;exitX=0.5;exitY=0;exitDx=0;exitDy=0;" edge="1" parent="1" source="xU4EvECStgTXnPyY3UQx-6" target="xU4EvECStgTXnPyY3UQx-1">
          <mxGeometry relative="1" as="geometry" />
        </mxCell>
        <mxCell id="xU4EvECStgTXnPyY3UQx-27" value="Confirm Changes Clicked" style="edgeLabel;html=1;align=center;verticalAlign=middle;resizable=0;points=[];" vertex="1" connectable="0" parent="xU4EvECStgTXnPyY3UQx-14">
          <mxGeometry x="-0.2028" y="-2" relative="1" as="geometry">
            <mxPoint as="offset" />
          </mxGeometry>
        </mxCell>
        <mxCell id="xU4EvECStgTXnPyY3UQx-6" value="Record Change Summary" style="rounded=0;whiteSpace=wrap;html=1;" vertex="1" parent="1">
          <mxGeometry x="630" y="70" width="120" height="60" as="geometry" />
        </mxCell>
        <mxCell id="xU4EvECStgTXnPyY3UQx-15" value="Search Results" style="rounded=0;whiteSpace=wrap;html=1;" vertex="1" parent="1">
          <mxGeometry x="630" y="310" width="120" height="60" as="geometry" />
        </mxCell>
        <mxCell id="xU4EvECStgTXnPyY3UQx-18" style="edgeStyle=orthogonalEdgeStyle;rounded=0;orthogonalLoop=1;jettySize=auto;html=1;exitX=1;exitY=0.5;exitDx=0;exitDy=0;entryX=0.5;entryY=1;entryDx=0;entryDy=0;" edge="1" parent="1" source="xU4EvECStgTXnPyY3UQx-15" target="xU4EvECStgTXnPyY3UQx-15">
          <mxGeometry relative="1" as="geometry">
            <Array as="points">
              <mxPoint x="810" y="340" />
              <mxPoint x="810" y="390" />
              <mxPoint x="690" y="390" />
            </Array>
          </mxGeometry>
        </mxCell>
        <mxCell id="xU4EvECStgTXnPyY3UQx-26" value="Search Button Clicked" style="edgeLabel;html=1;align=center;verticalAlign=middle;resizable=0;points=[];" vertex="1" connectable="0" parent="xU4EvECStgTXnPyY3UQx-18">
          <mxGeometry x="0.28" y="2" relative="1" as="geometry">
            <mxPoint x="-10" as="offset" />
          </mxGeometry>
        </mxCell>
      </root>
    </mxGraphModel>
  </diagram>
</mxfile>
